# xmcd
#
# Track frame offsets:
#	150
#	21009
#	42570
#	67502
#	92371
#	116742
#	137156
#	159064
#	186959
#	205429
#	231256
#
# Disc length: 3373 seconds
#
# Revision: 1
# Processed by: cddbd v1.5PL3 Copyright (c) Steve Scherf et al.
# Submitted via: audiograbber 1.83.01
#
DISCID=8b0d2b0b
DTITLE=Mary Chapin Carpenter - MCC At The BBC. Vol 1
DYEAR=1999
DGENRE=Country
TTITLE0=The Hard Way
TTITLE1=Shit Up and Kiss Me
TTITLE2=Almost Home
TTITLE3=Stones In The Road
TTITLE4=I Feel Lucky
TTITLE5=It Works
TTITLE6=10000 Miles
TTITLE7=Party Doll
TTITLE8=If I Were A Diva
TTITLE9=My Love Will Not Let You Down
TTITLE10=Why Walk When You Can Fly?
EXTD=Recorded at\nThe Lyric Theatre\nHammersmith\nLondon\n3 November 1999
EXTT0=
EXTT1=
EXTT2=
EXTT3=
EXTT4=
EXTT5=
EXTT6=
EXTT7=
EXTT8=
EXTT9=
EXTT10=
PLAYORDER=
